<svg xmlns="http://www.w3.org/2000/svg" viewBox="0 0 512 512" width="512" height="512">
  <defs>
    <linearGradient id="bg" x1="0" y1="0" x2="1" y2="1">
      <stop offset="0" stop-color="#00b86b"/>
      <stop offset="1" stop-color="#063d28"/>
    </linearGradient>
    <linearGradient id="gold" x1="0" y1="0" x2="0" y2="1">
      <stop offset="0" stop-color="#ffd76a"/>
      <stop offset="1" stop-color="#f5c542"/>
    </linearGradient>
  </defs>
  <rect width="512" height="512" rx="96" fill="url(#bg)"/>
  <g fill="url(#gold)">
    <path d="M176 96h160v40c0 62-30 104-72 114v44h44a16 16 0 0 1 16 16v18H184v-18a16 16 0 0 1 16-16h44v-44c-42-10-72-52-72-114V96z"/>
    <path d="M150 116h26v52c-22-6-34-22-34-40a12 12 0 0 1 8-12zm212 0a12 12 0 0 1 8 12c0 18-12 34-34 40v-52z" opacity="0.9"/>
    <rect x="168" y="372" width="176" height="26" rx="10"/>
  </g>
  <text x="256" y="470" font-family="Segoe UI, Arial, sans-serif" font-size="64" font-weight="700"
        text-anchor="middle" fill="#ffffff" opacity="0.95">2026</text>
</svg>
